<svg xmlns="http://www.w3.org/2000/svg" width="1200" height="760" viewBox="0 0 1200 760" role="img" aria-labelledby="title desc">
  <title id="title">후보 상품 비교</title><desc id="desc">세 가지 추상 상품 카드를 적합도와 가격, 배송 기준으로 비교합니다.</desc>
  <style>text{font-family:ui-sans-serif,system-ui,-apple-system,"Apple SD Gothic Neo","Noto Sans KR",sans-serif;fill:#182034}.muted{fill:#6d7485}.tiny{font-size:13px}.small{font-size:15px}.body{font-size:17px}.label{font-size:14px;font-weight:700}.title{font-size:30px;font-weight:750;letter-spacing:-.8px}.nav{font-size:16px;font-weight:650}.white{fill:#fff!important}</style>
  <rect width="1200" height="760" rx="28" fill="#f5f6fa"/><rect x="24" y="24" width="1152" height="712" rx="24" fill="#fff" stroke="#e5e8f0"/><rect x="24" y="24" width="220" height="712" rx="24" fill="#20263a"/><circle cx="64" cy="68" r="17" fill="#7568ff"/><path d="M56 68h16M64 60v16" stroke="#fff" stroke-width="2.5" stroke-linecap="round"/><text x="92" y="75" class="nav white">Vitlane</text><rect x="44" y="122" width="180" height="46" rx="13" fill="#343b55"/><circle cx="65" cy="145" r="6" fill="#8e84ff"/><text x="82" y="151" class="small white">데일리 러닝화</text><text x="52" y="213" class="tiny" fill="#8f96aa">상품 조사</text><text x="52" y="249" class="small" fill="#8f96aa">실시간 진행</text><text x="52" y="285" class="small" fill="#fff">후보</text><text x="52" y="321" class="small" fill="#8f96aa">결정</text>
  <text x="294" y="75" class="tiny muted">최종 후보 · 3개</text><rect x="1016" y="47" width="116" height="36" rx="18" fill="#eef8f6"/><text x="1037" y="70" class="tiny" fill="#277b6a">조사 완료</text><text x="294" y="139" class="title">조건에 가장 잘 맞는 후보예요</text><text x="294" y="172" class="body muted">중요한 조건 순으로 정리했어요. 상품을 열면 근거를 확인할 수 있어요.</text>
  <g transform="translate(294 208)"><rect width="260" height="426" rx="22" fill="#fff" stroke="#cfc9ff" stroke-width="2"/><rect x="16" y="16" width="228" height="154" rx="17" fill="#efedff"/><ellipse cx="130" cy="131" rx="80" ry="12" fill="#ded9ff"/><path d="M63 112c30-7 47-38 73-40 19-2 28 26 55 31 15 3 27 11 23 21-4 9-32 12-75 8l-72-4c-15-1-18-12-4-16Z" fill="#7366ee"/><path d="M90 105c24 4 43 5 69 1" fill="none" stroke="#fff" stroke-width="8" stroke-linecap="round"/><rect x="28" y="186" width="80" height="26" rx="13" fill="#ece9ff"/><text x="44" y="204" class="tiny" fill="#5547d4">가장 적합</text><text x="28" y="247" class="body" font-weight="700">에브리데이 러너</text><text x="28" y="273" class="tiny muted">균형 쿠션 · 4가지 색상</text><text x="28" y="315" class="label">118,000원</text><text x="232" y="315" class="tiny" text-anchor="end" fill="#287d6b">화요일 도착</text><line x1="28" y1="337" x2="232" y2="337" stroke="#eceef3"/><text x="28" y="365" class="tiny muted">잘 맞는 이유</text><text x="28" y="389" class="small">✓ 270 사이즈 재고 있음</text><text x="28" y="414" class="small">✓ 30일 내 반품 가능</text></g>
  <g transform="translate(573 208)"><rect width="260" height="426" rx="22" fill="#fff" stroke="#e2e4ec"/><rect x="16" y="16" width="228" height="154" rx="17" fill="#eaf7f4"/><ellipse cx="130" cy="131" rx="80" ry="12" fill="#d1eee7"/><path d="M63 112c30-7 47-38 73-40 19-2 28 26 55 31 15 3 27 11 23 21-4 9-32 12-75 8l-72-4c-15-1-18-12-4-16Z" fill="#53aa96"/><path d="M90 105c24 4 43 5 69 1" fill="none" stroke="#fff" stroke-width="8" stroke-linecap="round"/><rect x="28" y="186" width="78" height="26" rx="13" fill="#e7f6f2"/><text x="44" y="204" class="tiny" fill="#277b6a">가성비</text><text x="28" y="247" class="body" font-weight="700">클라우드 니트</text><text x="28" y="273" class="tiny muted">부드러운 갑피 · 가벼운 무게</text><text x="28" y="315" class="label">96,000원</text><text x="232" y="315" class="tiny" text-anchor="end" fill="#287b6a">수요일 도착</text><line x1="28" y1="337" x2="232" y2="337" stroke="#eceef3"/><text x="28" y="365" class="tiny muted">잘 맞는 이유</text><text x="28" y="389" class="small">✓ 현재 최저 가격</text><text x="28" y="414" class="small">✓ 무채색 재고 있음</text></g>
  <g transform="translate(852 208)"><rect width="260" height="426" rx="22" fill="#fff" stroke="#e2e4ec"/><rect x="16" y="16" width="228" height="154" rx="17" fill="#fff2df"/><ellipse cx="130" cy="131" rx="80" ry="12" fill="#f8dfbb"/><path d="M63 112c30-7 47-38 73-40 19-2 28 26 55 31 15 3 27 11 23 21-4 9-32 12-75 8l-72-4c-15-1-18-12-4-16Z" fill="#e59a42"/><path d="M90 105c24 4 43 5 69 1" fill="none" stroke="#fff" stroke-width="8" stroke-linecap="round"/><rect x="28" y="186" width="86" height="26" rx="13" fill="#fff0da"/><text x="44" y="204" class="tiny" fill="#a56119">내구성 우수</text><text x="28" y="247" class="body" font-weight="700">트레일 플렉스</text><text x="28" y="273" class="tiny muted">안정적 밑창 · 데일리 착용</text><text x="28" y="315" class="label">132,000원</text><text x="232" y="315" class="tiny" text-anchor="end" fill="#287d6b">목요일 도착</text><line x1="28" y1="337" x2="232" y2="337" stroke="#eceef3"/><text x="28" y="365" class="tiny muted">잘 맞는 이유</text><text x="28" y="389" class="small">✓ 안정적인 접지와 지지력</text><text x="28" y="414" class="small">✓ 예산 범위 안</text></g>
  <rect x="294" y="658" width="818" height="40" rx="14" fill="#f6f4ff"/><text x="315" y="683" class="tiny" fill="#5547d4">계속하기 전 가격과 재고를 판매처에서 다시 확인합니다.</text>
</svg>
